<svg width="239" height="50" viewBox="0 0 239 50" fill="none" xmlns="http://www.w3.org/2000/svg">
<g filter="url(#filter0_d_10_175)">
<circle cx="25" cy="25" r="15" fill="white"/>
<circle cx="25" cy="25" r="14.5" stroke="#5A5F99"/>
</g>
<path d="M25.271 29.2669C24.7658 29.6865 24.2791 30.0874 23.7968 30.4926C23.5858 30.6685 23.382 30.8531 23.1752 31.0347C22.7604 31.3996 22.4475 31.3217 22.2551 30.7997C21.7556 29.4515 21.256 28.1047 20.7694 26.7521C20.6718 26.4811 20.5282 26.308 20.2497 26.2172C19.1157 25.8423 17.9889 25.4486 16.8563 25.0723C16.3237 24.8949 16.0266 24.5964 16.0022 24.1725C15.9749 23.6981 16.206 23.3592 16.7457 23.1516C18.4511 22.4955 20.1622 21.8538 21.8704 21.2021C23.8557 20.4436 25.8395 19.6751 27.8248 18.918C29.4325 18.3052 31.0417 17.701 32.6508 17.0925C33.0212 16.9526 33.3829 16.9512 33.693 17.2295C34.0275 17.5294 34.0461 17.9231 33.9485 18.3268C33.4806 20.2345 33.0054 22.1422 32.5317 24.0485C31.979 26.2691 31.4235 28.4897 30.8723 30.7117C30.7029 31.3923 30.2981 31.8278 29.6062 31.9735C29.1454 32.0715 28.7593 31.8855 28.4076 31.6202C27.4802 30.9237 26.5601 30.2172 25.6357 29.5178C25.5237 29.4327 25.4045 29.3592 25.271 29.2669ZM33.1432 17.9433C33.1088 17.9173 33.0729 17.8899 33.0384 17.864C27.6626 19.9173 22.2852 21.9692 16.9094 24.0211C16.9094 24.0716 16.9079 24.1235 16.9065 24.1739C18.2286 24.6238 19.5521 25.0737 20.8828 25.525C21.0909 25.3982 21.2818 25.2785 21.4756 25.1617C23.7064 23.8178 25.9385 22.4739 28.1693 21.13C28.7837 20.7594 29.3966 20.3903 30.011 20.0197C30.2608 19.8683 30.5235 19.75 30.7402 20.0485C30.9555 20.347 30.7574 20.5633 30.5421 20.7551C30.4172 20.8661 30.2837 20.9685 30.1589 21.0795C28.1607 22.8416 26.1625 24.6036 24.1643 26.3671C23.9892 26.5214 23.8126 26.6772 23.6016 26.8632C23.9274 27.1141 24.2088 27.3304 24.4901 27.5452C25.9644 28.6671 27.4329 29.7961 28.9143 30.9078C29.4167 31.2856 29.8703 31.1169 30.0239 30.5156C30.4373 28.9035 30.8407 27.2886 31.2441 25.6721C31.7608 23.6029 32.2733 21.5337 32.7843 19.4645C32.9092 18.9584 33.0241 18.4508 33.1447 17.9433H33.1432ZM21.4771 26.1869C21.7613 26.9598 22.0312 27.6952 22.301 28.4291C22.3685 28.5041 22.4187 28.4911 22.4546 28.4075C22.4546 27.9807 22.4546 27.5524 22.4546 27.1256C22.4546 26.8473 22.5522 26.6325 22.7733 26.4421C23.7667 25.5856 24.7457 24.7118 25.7318 23.8481C25.8409 23.7514 25.9673 23.6736 26.085 23.5871L25.9773 23.4703C24.493 24.3657 23.0102 25.2612 21.4785 26.1855L21.4771 26.1869ZM23.224 29.6923C23.2657 29.7081 23.3087 29.7254 23.3504 29.7413C23.7408 29.4082 24.1313 29.0737 24.5662 28.7031C24.1385 28.3758 23.7695 28.0946 23.3116 27.7442C23.2786 28.4738 23.2513 29.0838 23.224 29.6937V29.6923Z" fill="#5A5F99"/>
<g filter="url(#filter1_d_10_175)">
<circle cx="57" cy="25" r="15" fill="white"/>
<circle cx="57" cy="25" r="14.5" stroke="#F3704E"/>
</g>
<path d="M50 20.5705C50.0646 20.1609 50.1272 19.6856 50.2201 19.2153C50.2858 18.8795 50.5009 18.6364 50.8129 18.4849C51.0916 18.3494 51.3703 18.2129 51.656 18.0933C52.1145 17.9 52.478 18.0066 52.7436 18.4172C53.4433 19.4993 54.1391 20.5844 54.8298 21.6725C55.1256 22.1388 55.0176 22.5683 54.546 22.8672C54.2704 23.0416 53.9917 23.212 53.716 23.3854C53.5463 23.492 53.4918 23.6285 53.5534 23.8298C54.2098 25.9662 55.5154 27.5943 57.4703 28.7153C57.7682 28.8857 57.8601 28.8648 58.1105 28.6207C58.3317 28.4054 58.5468 28.1842 58.7709 27.972C59.1193 27.6412 59.5767 27.6362 59.918 27.97C60.8541 28.8857 61.7871 29.8044 62.7151 30.7291C63.0797 31.0918 63.0898 31.4804 62.7717 31.888C62.6131 32.0912 62.4526 32.2935 62.2951 32.4988C62.0396 32.8326 61.6993 33.001 61.2762 33C60.3018 32.997 59.3808 32.7459 58.4943 32.3742C55.7376 31.2164 53.5726 29.371 51.9963 26.857C51.0623 25.3653 50.4403 23.7561 50.1575 22.0252C50.0828 21.5689 50.0565 21.1045 50 20.5705Z" fill="#F3704E"/>
<path d="M57 21C57.9545 21.1026 59.8636 21.9231 59.8636 24.3846M57.3182 19.1538C58.2727 19.2564 61.7727 20.3846 61.7727 24.3846M57.3182 17C58.2727 17.1026 64 17.9231 64 25" stroke="#F3704E" stroke-linecap="round"/>
<rect x="74" y="10" width="26" height="26" rx="13" fill="black"/>
<path d="M95.5 19.438H81.6366" stroke="white" stroke-linecap="round" stroke-linejoin="round"/>
<path d="M78.5 16.1908L80.7057 16.803L83.8088 28.3631L91.6505 28.3897" stroke="white" stroke-linecap="round" stroke-linejoin="round"/>
<path d="M83.3906 25.32H91.6516L93.4883 19.4468" stroke="white" stroke-linecap="round" stroke-linejoin="round"/>
<path d="M82.1482 22.3036H92.5562" stroke="white" stroke-linecap="round" stroke-linejoin="round"/>
<path d="M84.8828 19.4468L86.1408 25.2135" stroke="white" stroke-linecap="round" stroke-linejoin="round"/>
<path d="M90.008 19.4468L88.75 25.2135" stroke="white" stroke-linecap="round" stroke-linejoin="round"/>
<path d="M83.55 29.8092C83.9525 29.8092 84.2796 29.4987 84.2796 29.1083C84.2796 28.718 83.9525 28.4074 83.55 28.4074C83.1474 28.4074 82.8203 28.718 82.8203 29.1083C82.8203 29.4987 83.1474 29.8092 83.55 29.8092Z" stroke="white"/>
<path d="M91.8273 29.8092C92.2299 29.8092 92.557 29.4987 92.557 29.1083C92.557 28.718 92.2299 28.4074 91.8273 28.4074C91.4247 28.4074 91.0977 28.718 91.0977 29.1083C91.0977 29.4987 91.4247 29.8092 91.8273 29.8092Z" stroke="white"/>
<g clip-path="url(#clip0_10_175)">
<mask id="mask0_10_175" style="mask-type:luminance" maskUnits="userSpaceOnUse" x="102" y="10" width="26" height="26">
<path d="M128 10H102V36H128V10Z" fill="white"/>
</mask>
<g mask="url(#mask0_10_175)">
<path d="M115 35.5C121.904 35.5 127.5 29.9036 127.5 23C127.5 16.0964 121.904 10.5 115 10.5C108.096 10.5 102.5 16.0964 102.5 23C102.5 29.9036 108.096 35.5 115 35.5Z" fill="black"/>
<path d="M115 35.5C121.904 35.5 127.5 29.9036 127.5 23C127.5 16.0964 121.904 10.5 115 10.5C108.096 10.5 102.5 16.0964 102.5 23C102.5 29.9036 108.096 35.5 115 35.5Z" fill="white"/>
<path d="M115 35.5C121.904 35.5 127.5 29.9036 127.5 23C127.5 16.0964 121.904 10.5 115 10.5C108.096 10.5 102.5 16.0964 102.5 23C102.5 29.9036 108.096 35.5 115 35.5Z" stroke="black"/>
<path d="M114.844 22.0724C117.073 22.0724 118.88 20.2663 118.88 18.0362C118.88 15.8061 117.073 14 114.844 14C112.616 14 110.808 15.8061 110.808 18.0362C110.808 20.2663 112.616 22.0724 114.844 22.0724Z" fill="black"/>
<path d="M114.844 22.0724C117.073 22.0724 118.88 20.2663 118.88 18.0362C118.88 15.8061 117.073 14 114.844 14C112.616 14 110.808 15.8061 110.808 18.0362C110.808 20.2663 112.616 22.0724 114.844 22.0724Z" fill="white"/>
<path d="M114.844 22.0724C117.073 22.0724 118.88 20.2663 118.88 18.0362C118.88 15.8061 117.073 14 114.844 14C112.616 14 110.808 15.8061 110.808 18.0362C110.808 20.2663 112.616 22.0724 114.844 22.0724Z" stroke="black"/>
<path d="M106.01 31.5001C106.01 31.5001 105.594 26.4793 110.023 22.2578Z" fill="black"/>
<path d="M106.01 31.5001C106.01 31.5001 105.594 26.4793 110.023 22.2578Z" fill="white"/>
<path d="M106.01 31.5001C106.01 31.5001 105.594 26.4793 110.023 22.2578" stroke="black" stroke-linecap="round"/>
<path d="M123.99 31.5C123.99 31.5 124.406 26.201 119.977 21.9795Z" fill="black"/>
<path d="M123.99 31.5C123.99 31.5 124.406 26.201 119.977 21.9795Z" fill="white"/>
<path d="M123.99 31.5C123.99 31.5 124.406 26.201 119.977 21.9795" stroke="black" stroke-linecap="round"/>
</g>
</g>
<g clip-path="url(#clip1_10_175)">
<path d="M143.137 35.2548C150.111 35.2548 155.765 29.6013 155.765 22.6274C155.765 15.6535 150.111 10 143.137 10C136.163 10 130.51 15.6535 130.51 22.6274C130.51 29.6013 136.163 35.2548 143.137 35.2548Z" fill="white"/>
<path d="M142.904 10C142.855 11.2599 142.826 12.5212 142.752 13.7801C142.674 15.0985 142.495 16.405 142.051 17.6579C141.273 19.8517 139.709 21.1771 137.499 21.7772C136.249 22.1165 134.968 22.2474 133.681 22.3189C132.772 22.3695 131.861 22.3858 130.951 22.4156C130.822 22.4201 130.692 22.4161 130.51 22.4161C130.574 21.8 130.606 21.2083 130.701 20.627C131.093 18.2451 132.072 16.1312 133.666 14.3232C135.791 11.9141 138.452 10.499 141.637 10.0937C141.862 10.065 142.088 10.0312 142.313 10C142.51 10 142.707 10 142.904 10Z" fill="black"/>
<path d="M155.764 22.4255C154.584 22.3759 153.402 22.3432 152.223 22.2718C151.1 22.2038 149.989 22.0476 148.902 21.7356C146.467 21.0367 144.944 19.443 144.285 16.9987C143.948 15.7512 143.813 14.473 143.748 13.1878C143.694 12.1264 143.676 11.063 143.643 10C143.758 10 143.873 10 143.988 10C144.399 10.056 144.814 10.0982 145.222 10.1696C148.117 10.6761 150.563 12.0158 152.532 14.2076C154.147 16.0052 155.162 18.1048 155.572 20.4941C155.648 20.938 155.701 21.3854 155.764 21.8318V22.4255Z" fill="black"/>
<path d="M155.765 23.5149C155.701 23.9692 155.649 24.4256 155.572 24.8774C154.689 30.0071 150.678 34.122 145.597 35.1007C144.965 35.2222 144.322 35.2827 143.668 35.3735C143.668 35.0188 143.662 34.7237 143.669 34.4296C143.707 32.8468 143.767 31.265 144.041 29.7011C144.252 28.4993 144.597 27.3446 145.302 26.3297C146.267 24.9419 147.631 24.1666 149.234 23.7634C150.434 23.4618 151.656 23.3343 152.887 23.2713C153.846 23.2222 154.805 23.2019 155.765 23.1687V23.5149Z" fill="black"/>
<path d="M130.557 23.1835C130.878 23.1835 131.181 23.1691 131.482 23.1859C132.777 23.2574 134.074 23.3075 135.364 23.4245C136.66 23.5421 137.928 23.8149 139.093 24.4329C140.727 25.2999 141.711 26.6843 142.215 28.4441C142.589 29.7526 142.722 31.0973 142.798 32.4484C142.846 33.3293 142.861 34.2122 142.89 35.0941C142.892 35.1665 142.89 35.2389 142.89 35.3114C136.856 35.3957 130.79 30.263 130.557 23.1835Z" fill="black"/>
</g>
<g clip-path="url(#clip2_10_175)">
<path d="M170.882 35.2548C177.856 35.2548 183.51 29.6013 183.51 22.6274C183.51 15.6535 177.856 10 170.882 10C163.908 10 158.255 15.6535 158.255 22.6274C158.255 29.6013 163.908 35.2548 170.882 35.2548Z" fill="black"/>
<path d="M177.389 15.2333C176.671 14.7512 175.715 15.1529 175.476 15.2333L162.244 20.9381C161.527 21.1792 160.889 21.822 160.969 22.7058C161.048 23.5093 161.686 23.9914 162.244 24.2325L165.193 25.277C165.432 26.7233 165.911 29.4552 166.07 30.0177C166.309 30.7408 166.389 30.9015 166.389 30.9015C166.628 31.0622 166.947 31.2229 167.266 31.1426L171.012 29.4552L173.005 31.1426C173.005 31.1426 173.642 31.3836 173.961 31.3836C174.28 31.3836 174.439 31.3836 174.599 31.2229C175.316 30.9015 175.635 30.1784 175.715 29.857L178.106 16.7599V16.5992C178.106 16.0368 177.867 15.5547 177.468 15.2333H177.389ZM173.722 28.9731L168.621 24.7146C170.534 22.7862 173.483 19.8936 173.722 19.7329C173.961 19.4918 173.881 19.4115 173.881 19.4115C173.881 19.0901 173.403 19.4115 173.403 19.4115L166.389 23.5093H166.229L163.758 22.5451L175.794 17.4831L173.722 29.0535V28.9731Z" fill="white"/>
</g>
<g clip-path="url(#clip3_10_175)">
<path d="M198.627 35.2548C205.601 35.2548 211.255 29.6013 211.255 22.6274C211.255 15.6535 205.601 10 198.627 10C191.653 10 186 15.6535 186 22.6274C186 29.6013 191.653 35.2548 198.627 35.2548Z" fill="black"/>
<path d="M190 18.6774C190 18.6774 190.189 18.4839 190.378 18.3871C190.378 18.3871 190.567 18.3871 190.661 18.3871C191.417 18.3871 192.173 18.4839 192.929 18.3871C193.307 18.3871 193.496 18.5807 193.685 18.871C193.874 19.3549 194.157 19.8387 194.346 20.3226C194.724 21 195.102 21.7742 195.575 22.3549C195.669 22.5484 195.858 22.6452 195.953 22.742C196.236 22.9356 196.425 22.8388 196.614 22.5484C196.614 22.3549 196.708 22.0646 196.803 21.871C196.803 21.0968 196.803 20.2258 196.803 19.4516C196.803 19.0645 196.52 18.7742 196.047 18.6774C195.764 18.6774 195.764 18.5806 195.953 18.2903C196.141 18.0968 196.425 18 196.708 18H199.448C199.448 18 200.11 18.2903 200.11 18.871C200.11 19.9355 200.11 20.9033 200.11 21.9678C200.11 22.1613 200.11 22.2581 200.11 22.4517C200.11 22.4517 200.11 22.6452 200.204 22.742C200.393 22.9356 200.582 23.0323 200.771 22.742C200.96 22.5484 201.149 22.3549 201.244 22.1613C202 21.1936 202.566 20.0323 203.039 18.9678C203.039 18.9678 203.039 18.7742 203.133 18.6774C203.133 18.4839 203.417 18.3871 203.606 18.2903H206.346C206.346 18.2903 206.629 18.2903 206.818 18.2903C207.102 18.2903 207.196 18.5807 207.102 18.871C207.007 19.3549 206.818 19.742 206.535 20.1291C205.874 21 205.307 21.871 204.645 22.8388C204.551 23.0323 204.456 23.1291 204.362 23.3227C204.267 23.613 204.267 23.8065 204.362 24.0001C204.456 24.1936 204.551 24.2904 204.74 24.3872C205.212 24.8711 205.779 25.4517 206.251 25.9356C206.535 26.2259 206.724 26.5162 206.913 26.9033C206.913 27.0001 207.007 27.1937 207.007 27.2904C207.007 27.6776 206.818 27.9679 206.44 27.9679H203.795C203.228 27.9679 202.755 27.6776 202.378 27.1937C202 26.8066 201.622 26.4195 201.244 25.9356C201.244 25.8388 201.055 25.742 200.96 25.6453C200.582 25.4517 200.299 25.4517 200.11 25.8388C200.015 26.1291 199.921 26.4195 199.826 26.8066C199.826 26.9033 199.826 27.0969 199.826 27.2904C199.826 27.6776 199.637 27.8711 199.259 27.8711C197.653 27.9679 196.236 27.6776 194.913 26.8066C194.063 26.2259 193.496 25.4517 192.835 24.6775C192.079 23.2259 191.134 21.3871 190.283 19.5484C190.283 19.3549 190.094 19.0645 190 18.871V18.6774Z" fill="white"/>
</g>
<g clip-path="url(#clip4_10_175)">
<path d="M215 11L220 16L225 11" stroke="black" stroke-opacity="0.5" stroke-width="2" stroke-linecap="round" stroke-linejoin="round"/>
</g>
<g clip-path="url(#clip5_10_175)">
<rect x="228" y="10" width="10" height="10" rx="5" fill="white"/>
<path d="M236.051 17C235.695 17.7627 234.712 18.0339 234.712 18.0339C232.458 18.2203 230.797 16.4068 230.356 15.3559C229.763 13.9491 230.102 12.9661 230.102 12.9661C230.492 10.5932 233.237 12.661 232.542 13.5085C232.119 14.0339 231.881 14.6271 232.254 15.4407C232.627 16.2542 234.136 16.3051 234.475 15.8136C235.102 14.9322 236.441 16.1186 236.034 17M238 15C238 12.2373 235.763 10 233 10C230.237 10 228 12.2373 228 15C228 17.7627 230.237 20 233 20C235.763 20 238 17.7627 238 15Z" fill="black"/>
</g>
<g clip-path="url(#clip6_10_175)">
<rect x="228" y="22" width="10" height="7.683" rx="1.5" fill="white"/>
<path d="M236.549 22H229.451C228.655 22 228 22.688 228 23.5235V28.1595C228 28.995 228.655 29.683 229.451 29.683H236.549C237.345 29.683 238 28.995 238 28.1595V23.5235C238 22.688 237.345 22 236.549 22ZM236.549 22.8191C236.549 22.8191 236.612 22.8191 236.643 22.8355L232.93 26.3411L229.342 22.8355C229.342 22.8355 229.404 22.8191 229.451 22.8191H236.549ZM237.22 28.1595C237.22 28.5527 236.924 28.8639 236.549 28.8639H229.451C229.076 28.8639 228.78 28.5527 228.78 28.1595V23.5235C228.78 23.5235 228.78 23.458 228.796 23.4252L232.649 27.193C232.649 27.193 232.821 27.3077 232.914 27.3077C233.008 27.3077 233.101 27.2749 233.179 27.2094L237.189 23.4252C237.189 23.4252 237.204 23.4907 237.204 23.5235V28.1595H237.22Z" fill="black"/>
</g>
<g clip-path="url(#clip7_10_175)">
<path d="M233.765 41.683C236.526 41.683 238.765 39.4444 238.765 36.683C238.765 33.9216 236.526 31.683 233.765 31.683C231.003 31.683 228.765 33.9216 228.765 36.683C228.765 39.4444 231.003 41.683 233.765 41.683Z" fill="black"/>
<path d="M230.765 36.183L233.765 36.683V33.683" stroke="white" stroke-width="1.25" stroke-linecap="round" stroke-linejoin="round"/>
</g>
<defs>
<filter id="filter0_d_10_175" x="0" y="0" width="50" height="50" filterUnits="userSpaceOnUse" color-interpolation-filters="sRGB">
<feFlood flood-opacity="0" result="BackgroundImageFix"/>
<feColorMatrix in="SourceAlpha" type="matrix" values="0 0 0 0 0 0 0 0 0 0 0 0 0 0 0 0 0 0 127 0" result="hardAlpha"/>
<feOffset/>
<feGaussianBlur stdDeviation="5"/>
<feComposite in2="hardAlpha" operator="out"/>
<feColorMatrix type="matrix" values="0 0 0 0 0 0 0 0 0 0 0 0 0 0 0 0 0 0 0.15 0"/>
<feBlend mode="normal" in2="BackgroundImageFix" result="effect1_dropShadow_10_175"/>
<feBlend mode="normal" in="SourceGraphic" in2="effect1_dropShadow_10_175" result="shape"/>
</filter>
<filter id="filter1_d_10_175" x="37" y="5" width="40" height="40" filterUnits="userSpaceOnUse" color-interpolation-filters="sRGB">
<feFlood flood-opacity="0" result="BackgroundImageFix"/>
<feColorMatrix in="SourceAlpha" type="matrix" values="0 0 0 0 0 0 0 0 0 0 0 0 0 0 0 0 0 0 127 0" result="hardAlpha"/>
<feOffset/>
<feGaussianBlur stdDeviation="2.5"/>
<feComposite in2="hardAlpha" operator="out"/>
<feColorMatrix type="matrix" values="0 0 0 0 0 0 0 0 0 0 0 0 0 0 0 0 0 0 0.15 0"/>
<feBlend mode="normal" in2="BackgroundImageFix" result="effect1_dropShadow_10_175"/>
<feBlend mode="normal" in="SourceGraphic" in2="effect1_dropShadow_10_175" result="shape"/>
</filter>
<clipPath id="clip0_10_175">
<rect width="26" height="26" fill="white" transform="translate(102 10)"/>
</clipPath>
<clipPath id="clip1_10_175">
<rect width="26" height="26" fill="white" transform="translate(130 10)"/>
</clipPath>
<clipPath id="clip2_10_175">
<rect width="26" height="26" fill="white" transform="translate(158 10)"/>
</clipPath>
<clipPath id="clip3_10_175">
<rect width="26" height="26" fill="white" transform="translate(186 10)"/>
</clipPath>
<clipPath id="clip4_10_175">
<rect width="12" height="7" fill="white" transform="translate(214 10)"/>
</clipPath>
<clipPath id="clip5_10_175">
<rect x="228" y="10" width="10" height="10" rx="5" fill="white"/>
</clipPath>
<clipPath id="clip6_10_175">
<rect x="228" y="22" width="10" height="7.683" rx="1.5" fill="white"/>
</clipPath>
<clipPath id="clip7_10_175">
<rect width="11" height="10" fill="white" transform="translate(228 31.683)"/>
</clipPath>
</defs>
</svg>
